#N canvas 2 48 450 300 10;
#X obj 32 55 inlet;
#X obj 11 77 list;
#X obj 11 99 outlet;
#X obj 11 8 r \$1;
#X msg 11 30 bang;
#X connect 0 0 1 1;
#X connect 1 0 2 0;
#X connect 3 0 4 0;
#X connect 4 0 1 0;
