#N canvas 474 273 450 300 10;
#X obj 34 9 inlet;
#X obj 61 52 list split 1;
#X obj 88 130 outlet;
#X obj 74 99 list;
#X obj 61 74 t b a;
#X obj 34 31 t b a;
#X obj 34 153 s \$1;
#X connect 0 0 5 0;
#X connect 1 0 4 0;
#X connect 1 1 3 1;
#X connect 3 0 1 0;
#X connect 4 0 3 0;
#X connect 4 1 2 0;
#X connect 5 0 6 0;
#X connect 5 1 1 0;
