#N canvas 295 302 637 563 10;
#X obj 34 9 inlet;
#X obj 53 57 list split 1;
#X obj 66 104 list;
#X obj 137 389 t l;
#X obj 34 411 list;
#X obj 55 389 list prepend;
#X obj 34 433 outlet;
#X obj 53 79 t b a a;
#N canvas 494 59 829 652 parse-arguments 0;
#X obj 11 11 inlet;
#X obj 11 33 t b b b b b;
#X msg 74 55 0;
#X obj 69 275 list split 1;
#X obj 152 275 t l;
#X obj 127 535 t l;
#X obj 26 557 list;
#X obj 26 513 t b b;
#X obj 47 535 list prepend;
#X text 179 341 <- find the first non-zero element to begin parsing
args;
#X obj 69 361 spigot 0;
#X msg 135 339 1;
#X text 184 275 <- serialize the arguments;
#X obj 96 317 route 0;
#X obj 42 410 list;
#X obj 42 251 t b a;
#X obj 156 384 t l;
#X obj 42 432 list split 1;
#X obj 125 432 t l;
#X obj 69 384 list prepend;
#X obj 69 297 t a a;
#X obj 26 622 outlet;
#X obj 42 94 list append \$1 \$2 \$3 \$4 \$5 \$6 \$7 \$8 \$9 \$10 \$11
\$12 \$13 \$14 \$15 \$16 \$17 \$18 \$19 \$20 \$21 \$22 \$23 \$24 \$25
\$26 \$27 \$28 \$29 \$30 \$31 \$32 \$33 \$34 \$35 \$36 \$37 \$38 \$39
\$40 \$41 \$42 \$43 \$44 \$45 \$46 \$47 \$48 \$49 \$50 \$51 \$52 \$53
\$54 \$55 \$56 \$57 \$58 \$59 \$60 \$61 \$62 \$63 \$64 \$65 \$66 \$67
\$68 \$69 \$70 \$71 \$72 \$73 \$74 \$75 \$76 \$77 \$78 \$79 \$80 \$81
\$82 \$83 \$84 \$85 \$86 \$87 \$88 \$89 \$90 \$91 \$92 \$93 \$94 \$95
\$96 \$97 \$98 \$99 \$100 \$101 \$102 \$103 \$104 \$105 \$106 \$107
\$108 \$109 \$110 \$111 \$112 \$113 \$114 \$115 \$116 \$117 \$118 \$119
\$120 \$121 \$122 \$123 \$124 \$125 \$126 \$127 \$128, f 66;
#X connect 0 0 1 0;
#X connect 1 1 7 0;
#X connect 1 2 22 0;
#X connect 1 3 19 1;
#X connect 1 4 2 0;
#X connect 2 0 10 1;
#X connect 3 0 20 0;
#X connect 3 1 4 0;
#X connect 4 0 3 0;
#X connect 5 0 8 1;
#X connect 6 0 21 0;
#X connect 7 0 6 0;
#X connect 7 1 8 1;
#X connect 8 0 5 0;
#X connect 8 0 6 1;
#X connect 10 0 19 0;
#X connect 11 0 10 1;
#X connect 13 1 11 0;
#X connect 14 0 17 0;
#X connect 15 0 14 0;
#X connect 15 1 3 0;
#X connect 16 0 19 1;
#X connect 17 0 8 0;
#X connect 17 1 18 0;
#X connect 18 0 17 0;
#X connect 19 0 14 1;
#X connect 19 0 16 0;
#X connect 20 0 10 0;
#X connect 20 1 13 0;
#X connect 22 0 15 0;
#X restore 296 325 pd parse-arguments;
#N canvas 343 59 450 351 create-inlet-outlet 0;
#X obj 7 6 inlet;
#X obj 24 156 outlet;
#X msg 7 203 symbol $;
#X obj 7 225 makefilename %s0/outlet;
#X obj 7 247 list prepend s;
#X msg 41 51 symbol $;
#X obj 41 95 list prepend r;
#X obj 41 73 makefilename %s0/inlet;
#X obj 247 303 outlet;
#X obj 7 27 t b b b b;
#X connect 0 0 9 0;
#X connect 2 0 3 0;
#X connect 3 0 4 0;
#X connect 4 0 8 0;
#X connect 5 0 7 0;
#X connect 6 0 8 0;
#X connect 7 0 6 0;
#X connect 9 0 2 0;
#X connect 9 1 1 0;
#X connect 9 2 5 0;
#X restore 296 300 pd create-inlet-outlet;
#X msg 316 252 clear;
#X obj 277 67 loadbang;
#X obj 277 228 t b b b;
#X msg 277 370 loadbang;
#X obj 80 167 s \$0/inlet;
#X obj 80 228 r \$0/outlet;
#X obj 277 89 t b b;
#N canvas 959 228 450 423 add-objects 0;
#X obj 102 56 f;
#X obj 131 56 + 1;
#X msg 117 33 0;
#X obj 102 108 * 24;
#X obj 33 195 list prepend obj;
#X obj 117 11 inlet;
#X obj 33 151 list prepend;
#X obj 33 173 list prepend 10;
#X obj 14 33 t b a b;
#X obj 102 130 + 10;
#X obj 41 328 list;
#X msg 41 307 bang;
#X obj 136 130 pack f f;
#X msg 41 350 connect \$1 0 \$2 0;
#X obj 14 264 f;
#X obj 102 78 t f f f f;
#X obj 14 286 sel 0;
#X obj 33 217 list trim;
#X obj 136 109 - 1;
#X obj 14 11 inlet;
#X obj 33 239 s pd-\$0/filter-fn;
#X obj 41 372 s pd-\$0/filter-fn;
#X connect 0 0 1 0;
#X connect 0 0 15 0;
#X connect 1 0 0 1;
#X connect 2 0 0 1;
#X connect 3 0 9 0;
#X connect 4 0 17 0;
#X connect 5 0 2 0;
#X connect 6 0 7 0;
#X connect 7 0 4 0;
#X connect 8 0 14 0;
#X connect 8 1 6 0;
#X connect 8 2 0 0;
#X connect 9 0 6 1;
#X connect 10 0 13 0;
#X connect 11 0 10 0;
#X connect 12 0 10 1;
#X connect 13 0 21 0;
#X connect 14 0 16 0;
#X connect 15 0 3 0;
#X connect 15 1 14 1;
#X connect 15 2 18 0;
#X connect 15 3 12 1;
#X connect 16 1 11 0;
#X connect 17 0 20 0;
#X connect 18 0 12 0;
#X connect 19 0 8 0;
#X restore 425 356 pd add-objects;
#X obj 34 31 t b a b;
#X obj 80 255 list append;
#X obj 119 308 list split 1;
#X obj 80 283 route 0;
#X obj 277 392 s pd-\$0/filter-fn;
#N canvas 2 48 450 300 \$0/filter-fn 0;
#X restore 79 199 pd \$0/filter-fn;
#X obj 316 274 s pd-\$0/filter-fn;
#X connect 0 0 18 0;
#X connect 1 0 7 0;
#X connect 1 1 2 1;
#X connect 2 0 1 0;
#X connect 3 0 5 1;
#X connect 4 0 6 0;
#X connect 5 0 3 0;
#X connect 5 0 4 1;
#X connect 7 0 2 0;
#X connect 7 1 14 0;
#X connect 7 2 19 1;
#X connect 8 0 17 0;
#X connect 9 0 8 0;
#X connect 9 1 17 0;
#X connect 10 0 24 0;
#X connect 11 0 16 0;
#X connect 12 0 13 0;
#X connect 12 1 9 0;
#X connect 12 2 10 0;
#X connect 13 0 22 0;
#X connect 15 0 19 0;
#X connect 16 0 12 0;
#X connect 16 1 17 1;
#X connect 18 0 4 0;
#X connect 18 1 1 0;
#X connect 18 2 5 1;
#X connect 19 0 21 0;
#X connect 20 1 5 0;
#X connect 21 1 20 0;
