#N canvas 626 376 450 300 10;
#X obj 40 101 inlet;
#X obj 122 124 t l;
#X obj 19 146 list;
#X obj 19 15 r \$1;
#X msg 19 37 bang;
#X obj 19 168 outlet;
#X obj 19 61 t b b;
#X obj 40 124 list prepend;
#X connect 0 0 7 0;
#X connect 1 0 7 1;
#X connect 2 0 5 0;
#X connect 3 0 4 0;
#X connect 4 0 6 0;
#X connect 6 0 2 0;
#X connect 6 1 7 1;
#X connect 7 0 1 0;
#X connect 7 0 2 1;
