#N canvas 866 517 450 300 10;
#X obj 16 8 inlet;
#X obj 46 62 + 1;
#X obj 154 62 t l;
#X obj 16 84 mod \$1;
#X obj 16 106 sel 0;
#X obj 16 30 t b a;
#X obj 16 156 list;
#X obj 16 178 outlet;
#X obj 16 128 t b b;
#X obj 16 62 1;
#X obj 72 62 list prepend;
#X connect 0 0 5 0;
#X connect 1 0 9 1;
#X connect 2 0 10 1;
#X connect 3 0 4 0;
#X connect 4 0 8 0;
#X connect 5 0 9 0;
#X connect 5 1 10 0;
#X connect 6 0 7 0;
#X connect 8 0 6 0;
#X connect 8 1 10 1;
#X connect 9 0 1 0;
#X connect 9 0 3 0;
#X connect 10 0 2 0;
#X connect 10 0 6 1;
