#N canvas 1076 275 450 300 10;
#X obj 12 14 inlet;
#X obj 29 120 each \$0/done;
#X obj 29 172 =?;
#X obj 374 14 inlet;
#X obj 29 194 sel 1;
#X msg 29 216 1;
#X obj 12 36 t b b a b;
#X obj 12 238 f;
#X obj 12 260 outlet;
#X msg 63 57 0;
#X obj 29 78 list append \$1 \$2 \$3 \$4 \$5 \$6 \$7 \$8 \$9 \$10 \$11
\$12 \$13 \$14 \$15 \$16;
#X obj 107 158 print check;
#X obj 105 193 print result;
#X connect 0 0 6 0;
#X connect 1 0 2 0;
#X connect 1 0 11 0;
#X connect 2 0 4 0;
#X connect 2 0 12 0;
#X connect 3 0 10 1;
#X connect 4 0 5 0;
#X connect 5 0 7 1;
#X connect 6 0 7 0;
#X connect 6 1 10 0;
#X connect 6 2 2 1;
#X connect 6 3 9 0;
#X connect 7 0 8 0;
#X connect 9 0 7 1;
#X connect 10 0 1 0;
