#N canvas 2 48 450 300 10;
#X obj 20 13 loadbang;
#X obj 166 255 outlet;
#X obj 39 160 symbol _INITIAL-TEST-\$1;
#X obj 20 35 t b b b;
#X obj 166 232 list append \$1;
#X obj 156 114 makefilename _INITIAL-TEST-$%s;
#X msg 156 93 1;
#X obj 39 182 sel _PLACEHOLDER_SYM;
#X msg 166 209 bang;
#X text 38 203 ^ matches null here;
#X connect 0 0 3 0;
#X connect 2 0 7 0;
#X connect 3 1 2 0;
#X connect 3 2 6 0;
#X connect 4 0 1 0;
#X connect 5 0 7 1;
#X connect 6 0 5 0;
#X connect 7 1 8 0;
#X connect 8 0 4 0;
