#N canvas 64 186 450 300 10;
#X msg 13 66 bang;
#X obj 13 194 list split 0;
#X obj 13 222 list split 1;
#X obj 13 40 t b f;
#X obj 13 13 inlet lookup;
#X obj 13 269 outlet;
#X obj 13 245 list trim;
#X obj 82 171 mod 16;
#X obj 13 123 t a a;
#X obj 40 144 list length;
#X obj 13 88 list;
#X obj 268 13 r \$1;
#X connect 0 0 10 0;
#X connect 1 1 2 0;
#X connect 2 0 6 0;
#X connect 3 0 0 0;
#X connect 3 1 7 0;
#X connect 4 0 3 0;
#X connect 6 0 5 0;
#X connect 7 0 1 1;
#X connect 8 0 1 0;
#X connect 8 1 9 0;
#X connect 9 0 7 1;
#X connect 10 0 8 0;
#X connect 11 0 10 1;
