#N canvas 777 229 450 470 10;
#X msg 13 58 1 2 3 4;
#X obj 13 80 lol pop myval \; pr remainder \; bng \; concat myval \;
pr myval \;;
#X msg 143 47 bang;
#X msg 271 47 bang;
#X obj 271 105 print gathern'd;
#X obj 143 118 print gather'd;
#X text 10 6 pop the head \; off the list \; and print both;
#X text 141 12 gather up values \; until done \;;
#X text 269 15 gather N values \; at a time \;;
#X obj 271 69 lol range 32 \; gathern 8 \;;
#X obj 143 69 lol teef done-1 \; range 32 \; gather done-1 \;;
#X msg 12 213 a b c d e f g h i j k l m;
#X obj 12 235 lol slice 5 5 \; pr slice'd \;;
#X msg 223 208 bang;
#X obj 223 317 print;
#X text 10 182 cut the middle \; out of a list;
#X text 220 165 round-about way \; to pick 22 \; from a list \;;
#X obj 223 230 lol range 32 \; tee nums \; sel 22 \; teef done-3 \;
concat nums \; . done-3 \;;
#X connect 0 0 1 0;
#X connect 2 0 10 0;
#X connect 3 0 9 0;
#X connect 9 0 4 0;
#X connect 10 0 5 0;
#X connect 11 0 12 0;
#X connect 13 0 17 0;
#X connect 17 0 14 0;
