#N canvas 552 145 894 664 10;
#X msg 13 58 1 2 3 4;
#X msg 193 47 bang;
#X msg 345 47 bang;
#X obj 345 105 print gathern'd;
#X obj 193 118 print gather'd;
#X text 10 6 pop the head \; off the list \; and print both;
#X text 191 12 gather up values \; until done \;;
#X text 343 15 gather N values \; at a time \;;
#X msg 12 195 a b c d e f g h i j k l m;
#X msg 199 200 bang;
#X obj 199 309 print;
#X text 10 164 cut the middle \; out of a list;
#X text 196 157 round-about way \; to pick 22 \; from a list \;;
#N canvas 0 50 450 250 (subpatch) 0;
#X array lookup 16 float 3;
#A 0 0.85 0.249997 0.0999992 0.149998 0.249997 0.449994 0.599992 0.349995
0.0999992 0.05 0.0999992 0.0999992 0.0999992 0.399995 0.349995 0.149998
;
#X coords 0 1 16 0 128 20 2 0 0;
#X restore 14 291 graph;
#X text 178 354 out-of-band receive;
#N canvas 0 50 450 250 (subpatch) 0;
#X array result 16 float 2;
#X coords 0 1 16 0 128 20 1 0 0;
#X restore 14 624 graph;
#X text 13 260 weighted random lookup;
#X msg 57 320 18;
#X msg 100 320 23;
#X obj 178 418 print oob receive;
#X obj 178 397 gathern 4;
#X obj 178 375 r \$0/rand;
#X msg 14 320 5;
#X text 501 15 comments;
#X obj 352 544 print not-received;
#X obj 352 512 r test;
#X msg 505 108 0 1 2 3 4 5 6 7;
#X obj 397 512 r ^;
#X text 350 354 "local" variables \; using the ^ modifier;
#X msg 352 488 0 1 2 3 4 5 6 7;
#X msg 354 193 30 40 50 60 70 80;
#X text 352 169 loop through list;
#X msg 505 191 30 40 50 60 70 80;
#X text 503 157 loop through list \; by index;
#X msg 354 301 1 1 1 2 2 2;
#X msg 505 338 1 1 1 2 2 2;
#X obj 345 69 lol range 32 \; gathern 8 \;;
#X obj 13 80 lol pop myval \; pr remainder \; bng \; concat myval \;
pr myval \;;
#X obj 193 69 lol teef done-1 \; range 32 \; gather done-1 \;;
#X obj 12 217 lol slice 5 5 \; pr slice'd \;;
#X obj 199 222 lol range 32 \; tee nums \; sel 22 \; teef done-3 \;
concat nums \; . done-3 \;;
#X obj 352 388 lol loadbng \; range 8 \; tee ^ test \; bng \; concat
^ test \; gathern 8 \; into-message \;;
#X obj 505 35 lol loadbng \; # this is a comment \; range 8 \; gathern
8 \; into-message \;;
#X obj 14 343 lol tee in-seed \; loadbng \; concat in-seed \; default
1 \; list prepend seed \; list trim \; tee seed \; bng \; range 16
\; tabread lookup \; tee \$0/compare \; bng \; merge seed \; random
1024 \; / 1024 \; tee \$0/rand \; concat \$0/compare \; expr if($f1<$f2
\, 1 \, 0) \; gathern 16 \; into-table result \;;
#X obj 354 215 lol teef ^ done \; each \; / 30 \; int \; gather ^ done
\; into-message \;;
#X obj 505 213 lol tee ^ vals \; teef ^ done \; list length \; range
\; item ^ vals \; / 30 \; int \; gather ^ done \; into-message \;;
#X text 501 384 test incorrect \; local \;;
#X obj 504 437 lol range 3 \; tee ^ \; pr test-bad \;;
#X msg 504 416 bang;
#X msg 670 74 bang;
#X text 666 11 map and reduce;
#X msg 675 235 bang;
#X obj 675 257 lol range 6 \; + 1 \; gathern 6 \; reduce 1 expr $f1
* $f2 \; into-message \;;
#X msg 675 331 720;
#X obj 670 96 lol range 8 \; gathern 8 \; map expr pow($f1 + 1 \, 2)
\; into-message \;;
#X msg 670 159 1 4 9 16 25 36 49 64;
#X text 666 38 run the pow(x \, 2) across all \; values of the list
0 1 .. 8;
#X text 672 203 compute the factorial \; of the list 0 1 .. 6;
#X connect 0 0 37 0;
#X connect 1 0 38 0;
#X connect 2 0 36 0;
#X connect 8 0 39 0;
#X connect 9 0 40 0;
#X connect 17 0 43 0;
#X connect 18 0 43 0;
#X connect 20 0 19 0;
#X connect 21 0 20 0;
#X connect 22 0 43 0;
#X connect 25 0 24 0;
#X connect 27 0 24 0;
#X connect 30 0 44 0;
#X connect 32 0 45 0;
#X connect 36 0 3 0;
#X connect 38 0 4 0;
#X connect 40 0 10 0;
#X connect 41 0 29 0;
#X connect 42 0 26 0;
#X connect 44 0 34 0;
#X connect 45 0 35 0;
#X connect 48 0 47 0;
#X connect 49 0 54 0;
#X connect 51 0 52 0;
#X connect 52 0 53 0;
#X connect 54 0 55 0;
