#N canvas 472 103 450 643 10;
#X msg 13 58 1 2 3 4;
#X msg 143 47 bang;
#X msg 271 47 bang;
#X obj 271 105 print gathern'd;
#X obj 143 118 print gather'd;
#X text 10 6 pop the head \; off the list \; and print both;
#X text 141 12 gather up values \; until done \;;
#X text 269 15 gather N values \; at a time \;;
#X msg 12 213 a b c d e f g h i j k l m;
#X msg 303 208 bang;
#X obj 303 317 print;
#X text 10 182 cut the middle \; out of a list;
#X text 300 165 round-about way \; to pick 22 \; from a list \;;
#X msg 14 385 bang;
#N canvas 0 50 450 250 (subpatch) 0;
#X array lookup 16 float 3;
#A 0 0.85 0.249997 0.0999992 0.149998 0.249997 0.449994 0.599992 0.349995
0.0999992 0.05 0.0999992 0.0999992 0.0999992 0.399995 0.349995 0.149998
;
#X coords 0 1 16 0 128 20 1 0 0;
#X restore 14 358 graph;
#X text 161 387 out-of-band receive;
#N canvas 0 50 450 250 (subpatch) 0;
#X array result 16 float 3;
#A 0 1 1 0 0 0 0 1 1 0 0 0 0 0 0 1 0;
#X coords 0 1 16 0 128 20 1 0 0;
#X restore 14 600 graph;
#X obj 14 408 lol tee seed \; loadbng \; range 16 \; tabread lookup
\; tee \$0/compare \; bng \; random 1024 \; / 1024 \; concat \$0/compare
\; expr if($f1<$f2 \, 1 \, 0) \; gathern 16 \; list prepend 0 \; tee
result \;;
#X obj 161 408 r \$0/compare;
#X obj 161 430 gathern 16;
#X obj 161 451 print oob;
#X text 13 321 weighted random lookup;
#X obj 13 80 lol pop myval \; pr remainder \; bng \; concat myval \;
pr myval \;;
#X obj 271 69 lol range 32 \; gathern 8 \;;
#X obj 143 69 lol teef done-1 \; range 32 \; gather done-1 \;;
#X obj 12 235 lol slice 5 5 \; pr slice'd \;;
#X obj 303 230 lol range 32 \; tee nums \; sel 22 \; teef done-3 \;
concat nums \; . done-3 \;;
#X connect 0 0 22 0;
#X connect 1 0 24 0;
#X connect 2 0 23 0;
#X connect 8 0 25 0;
#X connect 9 0 26 0;
#X connect 13 0 17 0;
#X connect 18 0 19 0;
#X connect 19 0 20 0;
#X connect 23 0 3 0;
#X connect 24 0 4 0;
#X connect 26 0 10 0;
