#N canvas 518 95 473 664 10;
#X msg 13 58 1 2 3 4;
#X msg 193 47 bang;
#X msg 321 47 bang;
#X obj 321 105 print gathern'd;
#X obj 193 118 print gather'd;
#X text 10 6 pop the head \; off the list \; and print both;
#X text 191 12 gather up values \; until done \;;
#X text 319 15 gather N values \; at a time \;;
#X msg 12 195 a b c d e f g h i j k l m;
#X msg 343 201 bang;
#X obj 343 310 print;
#X text 10 164 cut the middle \; out of a list;
#X text 340 158 round-about way \; to pick 22 \; from a list \;;
#N canvas 0 50 450 250 (subpatch) 0;
#X array lookup 16 float 3;
#A 0 0.85 0.249997 0.0999992 0.149998 0.249997 0.449994 0.599992 0.349995
0.0999992 0.05 0.0999992 0.0999992 0.0999992 0.399995 0.349995 0.149998
;
#X coords 0 1 16 0 128 20 2 0 0;
#X restore 14 291 graph;
#X text 178 354 out-of-band receive;
#N canvas 0 50 450 250 (subpatch) 0;
#X array result 16 float 2;
#X coords 0 1 16 0 128 20 1 0 0;
#X restore 14 624 graph;
#X text 13 260 weighted random lookup;
#X msg 57 320 18;
#X msg 100 320 23;
#X obj 178 418 print oob receive;
#X obj 178 397 gathern 4;
#X obj 178 375 r \$0/rand;
#X msg 14 320 5;
#X text 185 504 comments;
#X obj 337 535 print not-received;
#X obj 337 503 r test;
#X msg 188 597;
#X obj 382 503 r ^;
#X obj 337 379 lol loadbng \; range 16 \; tee ^ test \; bng \; concat
^ test \; gathern 16 \; into-message \;;
#X obj 13 80 lol pop myval \; pr remainder \; bng \; concat myval \;
pr myval \;;
#X obj 321 69 lol range 32 \; gathern 8 \;;
#X obj 193 69 lol teef done-1 \; range 32 \; gather done-1 \;;
#X obj 12 217 lol slice 5 5 \; pr slice'd \;;
#X obj 343 223 lol range 32 \; tee nums \; sel 22 \; teef done-3 \;
concat nums \; . done-3 \;;
#X obj 188 524 lol loadbng \; range 16 \; # this is a comment \; gathern
16 \; into-message \;;
#X obj 14 343 lol tee in-seed \; loadbng \; concat in-seed \; default
1 \; list prepend seed \; list trim \; tee seed \; bng \; range 16
\; tabread lookup \; tee \$0/compare \; bng \; merge seed \; random
1024 \; / 1024 \; tee \$0/rand \; concat \$0/compare \; expr if($f1<$f2
\, 1 \, 0) \; gathern 16 \; into-table result \;;
#X msg 337 479;
#X text 335 345 "local" variables \; using the ^ modifier;
#X connect 0 0 29 0;
#X connect 1 0 31 0;
#X connect 2 0 30 0;
#X connect 8 0 32 0;
#X connect 9 0 33 0;
#X connect 17 0 35 0;
#X connect 18 0 35 0;
#X connect 20 0 19 0;
#X connect 21 0 20 0;
#X connect 22 0 35 0;
#X connect 25 0 24 0;
#X connect 27 0 24 0;
#X connect 28 0 36 0;
#X connect 30 0 3 0;
#X connect 31 0 4 0;
#X connect 33 0 10 0;
#X connect 34 0 26 0;
