#N canvas 305 130 450 300 10;
#N canvas 1 79 450 300 \$0/pipeline 0;
#X restore 340 10 pd \$0/pipeline;
#X obj 11 30 s \$0/start;
#X obj 11 61 r \$0/result;
#X obj 11 7 inlet;
#X obj 11 83 outlet;
#X obj 172 12 loadbang;
#X msg 172 34 bang;
#N canvas 645 172 829 652 parse-arguments 0;
#X obj 11 11 inlet;
#X obj 11 595 \$0;
#X obj 11 617 outlet;
#X obj 11 33 t b b b b b;
#X msg 74 55 0;
#X obj 72 171 list split 1;
#X obj 155 171 t l;
#X obj 45 489 list trim;
#X obj 146 445 t l;
#X obj 45 467 list;
#X obj 45 423 t b b;
#X obj 45 512 print;
#X obj 45 401 sel \;;
#X obj 66 445 list prepend;
#X text 182 237 <- find the first non-zero element to begin parsing
args;
#X text 82 399 <- split on semicolon;
#X obj 72 257 spigot 0;
#X msg 138 235 1;
#X text 187 171 <- serialize the arguments;
#X obj 99 213 route 0;
#X obj 26 562 print done;
#X obj 45 86 list append \$1 \$2 \$3 \$4 \$5 \$6 \$7 \$8 \$9 \$10 \$11
\$12 \$13 \$14 \$15 \$16 \$17 \$18 \$19 \$20 \$21 \$22 \$23 \$24 \$25
\$26 \$27 \$28 \$29 \$30 \$31 \$32 \$33 \$34 \$35 \$36 \$37 \$38 \$39
\$40 \$41 \$42 \$43 \$44 \$45 \$46 \$47 \$48 \$49 \$50 \$51 \$52 \$53
\$54 \$55 \$56 \$57 \$58 \$59 \$60 \$61 \$62 \$63 \$64, f 66;
#X obj 45 306 list;
#X obj 45 147 t b a;
#X obj 159 280 t l;
#X obj 45 328 list split 1;
#X obj 128 328 t l;
#X obj 72 280 list prepend;
#X obj 72 193 t a a;
#X connect 0 0 3 0;
#X connect 1 0 2 0;
#X connect 3 0 1 0;
#X connect 3 1 20 0;
#X connect 3 2 21 0;
#X connect 3 3 27 1;
#X connect 3 4 4 0;
#X connect 4 0 16 1;
#X connect 5 0 28 0;
#X connect 5 1 6 0;
#X connect 6 0 5 0;
#X connect 7 0 11 0;
#X connect 8 0 13 1;
#X connect 9 0 7 0;
#X connect 10 0 9 0;
#X connect 10 1 13 1;
#X connect 12 0 10 0;
#X connect 12 1 13 0;
#X connect 13 0 8 0;
#X connect 13 0 9 1;
#X connect 16 0 27 0;
#X connect 17 0 16 1;
#X connect 19 1 17 0;
#X connect 21 0 23 0;
#X connect 22 0 25 0;
#X connect 23 0 22 0;
#X connect 23 1 5 0;
#X connect 24 0 27 1;
#X connect 25 0 12 0;
#X connect 25 1 26 0;
#X connect 26 0 25 0;
#X connect 27 0 22 1;
#X connect 27 0 24 0;
#X connect 28 0 16 0;
#X connect 28 1 19 0;
#X restore 172 56 pd parse-arguments;
#X connect 2 0 4 0;
#X connect 3 0 1 0;
#X connect 5 0 6 0;
#X connect 6 0 7 0;
