#N canvas 712 52 547 373 10;
#N canvas 530 54 316 710 \$0/pipeline 0;
#X restore 8 82 pd \$0/pipeline;
#X obj 8 33 inlet;
#X obj 8 139 outlet;
#X msg 164 58 bang;
#N canvas 643 162 829 652 parse-arguments 0;
#X obj 11 11 inlet;
#X obj 11 33 t b b b b b;
#X msg 74 55 0;
#X obj 72 171 list split 1;
#X obj 155 171 t l;
#X obj 45 489 list trim;
#X obj 146 445 t l;
#X obj 45 467 list;
#X obj 45 423 t b b;
#X obj 45 401 sel \;;
#X obj 66 445 list prepend;
#X text 182 237 <- find the first non-zero element to begin parsing
args;
#X text 82 399 <- split on semicolon;
#X obj 72 257 spigot 0;
#X msg 138 235 1;
#X text 187 171 <- serialize the arguments;
#X obj 99 213 route 0;
#X obj 45 86 list append \$1 \$2 \$3 \$4 \$5 \$6 \$7 \$8 \$9 \$10 \$11
\$12 \$13 \$14 \$15 \$16 \$17 \$18 \$19 \$20 \$21 \$22 \$23 \$24 \$25
\$26 \$27 \$28 \$29 \$30 \$31 \$32 \$33 \$34 \$35 \$36 \$37 \$38 \$39
\$40 \$41 \$42 \$43 \$44 \$45 \$46 \$47 \$48 \$49 \$50 \$51 \$52 \$53
\$54 \$55 \$56 \$57 \$58 \$59 \$60 \$61 \$62 \$63 \$64, f 66;
#X obj 45 306 list;
#X obj 45 147 t b a;
#X obj 159 280 t l;
#X obj 45 328 list split 1;
#X obj 128 328 t l;
#X obj 72 280 list prepend;
#X obj 72 193 t a a;
#X obj 45 512 outlet;
#X obj 26 562 outlet;
#X connect 0 0 1 0;
#X connect 1 1 26 0;
#X connect 1 2 17 0;
#X connect 1 3 23 1;
#X connect 1 4 2 0;
#X connect 2 0 13 1;
#X connect 3 0 24 0;
#X connect 3 1 4 0;
#X connect 4 0 3 0;
#X connect 5 0 25 0;
#X connect 6 0 10 1;
#X connect 7 0 5 0;
#X connect 8 0 7 0;
#X connect 8 1 10 1;
#X connect 9 0 8 0;
#X connect 9 1 10 0;
#X connect 10 0 6 0;
#X connect 10 0 7 1;
#X connect 13 0 23 0;
#X connect 14 0 13 1;
#X connect 16 1 14 0;
#X connect 17 0 19 0;
#X connect 18 0 21 0;
#X connect 19 0 18 0;
#X connect 19 1 3 0;
#X connect 20 0 23 1;
#X connect 21 0 9 0;
#X connect 21 1 22 0;
#X connect 22 0 21 0;
#X connect 23 0 18 1;
#X connect 23 0 20 0;
#X connect 24 0 13 0;
#X connect 24 1 16 0;
#X restore 117 242 pd parse-arguments;
#N canvas 360 48 450 301 create-inlet-outlet 0;
#X obj 7 6 inlet;
#X obj 26 156 outlet;
#X obj 7 27 t b b b;
#X obj 7 268 s \$0/lol-add;
#X msg 7 203 symbol $;
#X obj 7 225 makefilename %s0/outlet;
#X obj 7 247 list prepend s;
#X obj 46 114 s \$0/lol-add;
#X msg 46 49 symbol $;
#X obj 46 93 list prepend r;
#X obj 46 71 makefilename %s0/inlet;
#X connect 0 0 2 0;
#X connect 2 0 4 0;
#X connect 2 1 1 0;
#X connect 2 2 8 0;
#X connect 4 0 5 0;
#X connect 5 0 6 0;
#X connect 6 0 3 0;
#X connect 8 0 10 0;
#X connect 9 0 7 0;
#X connect 10 0 9 0;
#X restore 117 219 pd create-inlet-outlet;
#N canvas 360 212 450 423 lol-add-object 0;
#X obj 14 11 r \$0/lol-add;
#X obj 102 56 f;
#X obj 131 56 + 1;
#X msg 117 33 0;
#X obj 102 108 * 24;
#X obj 33 195 list prepend obj;
#X obj 117 11 inlet;
#X obj 33 239 s pd-\$0/pipeline;
#X obj 294 11 r pd-\$0/pipeline;
#X obj 294 93 print lol-add-object;
#X obj 33 151 list prepend;
#X obj 33 173 list prepend 10;
#X obj 14 33 t b a b;
#X obj 102 130 + 10;
#X obj 41 328 list;
#X msg 41 307 bang;
#X obj 136 130 pack f f;
#X msg 41 350 connect \$1 0 \$2 0;
#X obj 41 372 s pd-\$0/pipeline;
#X obj 14 264 f;
#X obj 102 78 t f f f f;
#X obj 14 286 sel 0;
#X obj 33 217 list trim;
#X obj 136 109 - 1;
#X obj 294 63 spigot 0;
#X obj 339 37 r \$0/debug;
#X connect 0 0 12 0;
#X connect 1 0 2 0;
#X connect 1 0 20 0;
#X connect 2 0 1 1;
#X connect 3 0 1 1;
#X connect 4 0 13 0;
#X connect 5 0 22 0;
#X connect 6 0 3 0;
#X connect 8 0 24 0;
#X connect 10 0 11 0;
#X connect 11 0 5 0;
#X connect 12 0 19 0;
#X connect 12 1 10 0;
#X connect 12 2 1 0;
#X connect 13 0 10 1;
#X connect 14 0 17 0;
#X connect 15 0 14 0;
#X connect 16 0 14 1;
#X connect 17 0 18 0;
#X connect 19 0 21 0;
#X connect 20 0 4 0;
#X connect 20 1 19 1;
#X connect 20 2 23 0;
#X connect 20 3 16 1;
#X connect 21 1 15 0;
#X connect 22 0 7 0;
#X connect 23 0 16 0;
#X connect 24 0 9 0;
#X connect 25 0 24 1;
#X restore 324 99 pd lol-add-object;
#X msg 137 171 clear;
#X obj 164 80 s \$0/initialize;
#X obj 324 78 r \$0/initialize;
#X obj 98 125 r \$0/initialize;
#X obj 325 189 s pd-\$0/pipeline;
#X obj 137 193 s pd-\$0/pipeline;
#X obj 325 142 r \$0/viz;
#X msg 325 167 vis 1;
#X obj 6 4 bng 8 250 50 0 \$0/viz empty empty 17 7 0 10 -262144 -1
-1;
#X obj 164 36 loadbang;
#X obj 222 264 s \$0/lol-add;
#X obj 117 264 outlet;
#X obj 98 147 t b b b;
#X obj 98 311 s pd-\$0/pipeline;
#X msg 98 289 loadbang;
#X obj 8 55 s \$0/inlet;
#X obj 8 116 r \$0/outlet;
#X connect 1 0 22 0;
#X connect 3 0 8 0;
#X connect 4 0 18 0;
#X connect 4 1 17 0;
#X connect 5 0 4 0;
#X connect 7 0 12 0;
#X connect 9 0 6 0;
#X connect 10 0 19 0;
#X connect 13 0 14 0;
#X connect 14 0 11 0;
#X connect 16 0 3 0;
#X connect 19 0 21 0;
#X connect 19 1 5 0;
#X connect 19 2 7 0;
#X connect 21 0 20 0;
#X connect 23 0 2 0;
#X coords 0 -1 1 1 100 10 1 0 0;
