#N canvas 667 50 547 526 10;
#N canvas 1224 48 316 688 \$0/pipeline 1;
#X restore 8 82 pd \$0/pipeline;
#X obj 8 33 inlet;
#X obj 8 139 outlet;
#X msg 164 58 bang;
#N canvas 495 64 829 652 parse-arguments 0;
#X obj 11 11 inlet;
#X obj 11 33 t b b b b b;
#X msg 74 55 0;
#X obj 69 275 list split 1;
#X obj 152 275 t l;
#X obj 143 535 t l;
#X obj 42 557 list;
#X obj 42 513 t b b;
#X obj 42 491 sel \;;
#X obj 63 535 list prepend;
#X text 179 341 <- find the first non-zero element to begin parsing
args;
#X text 79 489 <- split on semicolon;
#X obj 69 361 spigot 0;
#X msg 135 339 1;
#X text 184 275 <- serialize the arguments;
#X obj 96 317 route 0;
#X obj 42 410 list;
#X obj 42 251 t b a;
#X obj 156 384 t l;
#X obj 42 432 list split 1;
#X obj 125 432 t l;
#X obj 69 384 list prepend;
#X obj 69 297 t a a;
#X obj 42 579 outlet;
#X obj 26 614 outlet;
#X obj 42 94 list append \$1 \$2 \$3 \$4 \$5 \$6 \$7 \$8 \$9 \$10 \$11
\$12 \$13 \$14 \$15 \$16 \$17 \$18 \$19 \$20 \$21 \$22 \$23 \$24 \$25
\$26 \$27 \$28 \$29 \$30 \$31 \$32 \$33 \$34 \$35 \$36 \$37 \$38 \$39
\$40 \$41 \$42 \$43 \$44 \$45 \$46 \$47 \$48 \$49 \$50 \$51 \$52 \$53
\$54 \$55 \$56 \$57 \$58 \$59 \$60 \$61 \$62 \$63 \$64 \$65 \$66 \$67
\$68 \$69 \$70 \$71 \$72 \$73 \$74 \$75 \$76 \$77 \$78 \$79 \$80 \$81
\$82 \$83 \$84 \$85 \$86 \$87 \$88 \$89 \$90 \$91 \$92 \$93 \$94 \$95
\$96 \$97 \$98 \$99 \$100 \$101 \$102 \$103 \$104 \$105 \$106 \$107
\$108 \$109 \$110 \$111 \$112 \$113 \$114 \$115 \$116 \$117 \$118 \$119
\$120 \$121 \$122 \$123 \$124 \$125 \$126 \$127 \$128, f 66;
#N canvas 833 555 450 317 replace-caret-local-dollarzero-vars 0;
#X obj 9 9 inlet;
#X obj 63 236 outlet;
#X obj 9 158 sel ^;
#X obj 9 272 s \$0/local-catch;
#X obj 63 203 spigot 1;
#X obj 28 58 spigot 0;
#X obj 94 9 r \$0/local-catch;
#X msg 9 248 1;
#X obj 94 31 t f f;
#X obj 86 59 == 0;
#X obj 28 80 sel \;;
#X msg 238 88 symbol $;
#X obj 238 66 loadbang;
#X obj 238 110 makefilename %s0/%%s;
#X obj 120 203 makefilename;
#X obj 238 132 list prepend set;
#X obj 238 154 list trim;
#X obj 9 31 t a a b;
#X obj 36 180 t b a;
#X msg 36 202 0;
#X msg 28 102 symbol;
#X obj 28 124 makefilename \;;
#X connect 0 0 17 0;
#X connect 2 0 7 0;
#X connect 2 1 18 0;
#X connect 4 0 1 0;
#X connect 5 0 10 0;
#X connect 6 0 8 0;
#X connect 7 0 3 0;
#X connect 8 0 9 0;
#X connect 8 1 5 1;
#X connect 9 0 4 1;
#X connect 10 0 20 0;
#X connect 10 1 14 0;
#X connect 11 0 13 0;
#X connect 12 0 11 0;
#X connect 13 0 15 0;
#X connect 14 0 1 0;
#X connect 15 0 16 0;
#X connect 16 0 14 0;
#X connect 17 0 2 0;
#X connect 17 1 5 0;
#X connect 18 0 19 0;
#X connect 18 1 4 0;
#X connect 19 0 3 0;
#X connect 20 0 21 0;
#X connect 21 0 1 0;
#X restore 42 458 pd replace-caret-local-dollarzero-vars;
#X connect 0 0 1 0;
#X connect 1 1 24 0;
#X connect 1 2 25 0;
#X connect 1 3 21 1;
#X connect 1 4 2 0;
#X connect 2 0 12 1;
#X connect 3 0 22 0;
#X connect 3 1 4 0;
#X connect 4 0 3 0;
#X connect 5 0 9 1;
#X connect 6 0 23 0;
#X connect 7 0 6 0;
#X connect 7 1 9 1;
#X connect 8 0 7 0;
#X connect 8 1 9 0;
#X connect 9 0 5 0;
#X connect 9 0 6 1;
#X connect 12 0 21 0;
#X connect 13 0 12 1;
#X connect 15 1 13 0;
#X connect 16 0 19 0;
#X connect 17 0 16 0;
#X connect 17 1 3 0;
#X connect 18 0 21 1;
#X connect 19 0 26 0;
#X connect 19 1 20 0;
#X connect 20 0 19 0;
#X connect 21 0 16 1;
#X connect 21 0 18 0;
#X connect 22 0 12 0;
#X connect 22 1 15 0;
#X connect 25 0 17 0;
#X connect 26 0 8 0;
#X restore 139 284 pd parse-arguments;
#N canvas 348 84 450 301 create-inlet-outlet 0;
#X obj 7 6 inlet;
#X obj 26 156 outlet;
#X obj 7 27 t b b b;
#X obj 7 268 s \$0/lol-add;
#X msg 7 203 symbol $;
#X obj 7 225 makefilename %s0/outlet;
#X obj 7 247 list prepend s;
#X obj 46 114 s \$0/lol-add;
#X msg 46 49 symbol $;
#X obj 46 93 list prepend r;
#X obj 46 71 makefilename %s0/inlet;
#X connect 0 0 2 0;
#X connect 2 0 4 0;
#X connect 2 1 1 0;
#X connect 2 2 8 0;
#X connect 4 0 5 0;
#X connect 5 0 6 0;
#X connect 6 0 3 0;
#X connect 8 0 10 0;
#X connect 9 0 7 0;
#X connect 10 0 9 0;
#X restore 139 261 pd create-inlet-outlet;
#N canvas 360 212 450 423 lol-add-object 0;
#X obj 14 11 r \$0/lol-add;
#X obj 102 56 f;
#X obj 131 56 + 1;
#X msg 117 33 0;
#X obj 102 108 * 24;
#X obj 33 195 list prepend obj;
#X obj 117 11 inlet;
#X obj 33 239 s pd-\$0/pipeline;
#X obj 294 11 r pd-\$0/pipeline;
#X obj 294 93 print lol-add-object;
#X obj 33 151 list prepend;
#X obj 33 173 list prepend 10;
#X obj 14 33 t b a b;
#X obj 102 130 + 10;
#X obj 41 328 list;
#X msg 41 307 bang;
#X obj 136 130 pack f f;
#X msg 41 350 connect \$1 0 \$2 0;
#X obj 41 372 s pd-\$0/pipeline;
#X obj 14 264 f;
#X obj 102 78 t f f f f;
#X obj 14 286 sel 0;
#X obj 33 217 list trim;
#X obj 136 109 - 1;
#X obj 294 63 spigot 0;
#X obj 339 37 r \$0/debug;
#X connect 0 0 12 0;
#X connect 1 0 2 0;
#X connect 1 0 20 0;
#X connect 2 0 1 1;
#X connect 3 0 1 1;
#X connect 4 0 13 0;
#X connect 5 0 22 0;
#X connect 6 0 3 0;
#X connect 8 0 24 0;
#X connect 10 0 11 0;
#X connect 11 0 5 0;
#X connect 12 0 19 0;
#X connect 12 1 10 0;
#X connect 12 2 1 0;
#X connect 13 0 10 1;
#X connect 14 0 17 0;
#X connect 15 0 14 0;
#X connect 16 0 14 1;
#X connect 17 0 18 0;
#X connect 19 0 21 0;
#X connect 20 0 4 0;
#X connect 20 1 19 1;
#X connect 20 2 23 0;
#X connect 20 3 16 1;
#X connect 21 1 15 0;
#X connect 22 0 7 0;
#X connect 23 0 16 0;
#X connect 24 0 9 0;
#X connect 25 0 24 1;
#X restore 324 99 pd lol-add-object;
#X msg 159 213 clear;
#X obj 164 80 s \$0/initialize;
#X obj 324 78 r \$0/initialize;
#X obj 120 167 r \$0/initialize;
#X obj 325 189 s pd-\$0/pipeline;
#X obj 159 235 s pd-\$0/pipeline;
#X obj 325 142 r \$0/viz;
#X msg 325 167 vis 1;
#X obj 164 36 loadbang;
#X obj 244 329 s \$0/lol-add;
#X obj 139 306 outlet;
#X obj 120 189 t b b b;
#X obj 147 426 s pd-\$0/pipeline;
#X obj 8 55 s \$0/inlet;
#X obj 8 116 r \$0/outlet;
#X obj 6 4 bng 8 250 50 0 \$0/viz empty empty 17 7 0 10 -262144 -1
-1;
#X msg 147 404 loadbang;
#N canvas 35 78 450 438 special-case-loadbang 0;
#X obj 6 7 inlet;
#X msg 33 170 symbol $;
#X obj 33 192 makefilename %s0/loadbang;
#X obj 6 29 t a a;
#X obj 6 260 spigot 1;
#X obj 6 282 outlet;
#X obj 33 50 list split 1;
#X msg 33 218 list ]loadbang \$1;
#X obj 33 96 sel ]loadbang;
#X obj 33 118 t b b;
#X msg 108 119 1;
#X msg 60 140 0;
#X connect 0 0 3 0;
#X connect 1 0 2 0;
#X connect 2 0 7 0;
#X connect 3 0 4 0;
#X connect 3 1 6 0;
#X connect 4 0 5 0;
#X connect 6 0 8 0;
#X connect 7 0 5 0;
#X connect 8 0 9 0;
#X connect 8 1 10 0;
#X connect 9 0 1 0;
#X connect 9 1 11 0;
#X connect 10 0 4 1;
#X connect 11 0 4 1;
#X restore 244 306 pd special-case-loadbang;
#X obj 120 381 t b b;
#X obj 120 450 s \$0/loadbang;
#X connect 1 0 20 0;
#X connect 3 0 8 0;
#X connect 4 0 17 0;
#X connect 4 1 24 0;
#X connect 5 0 4 0;
#X connect 7 0 12 0;
#X connect 9 0 6 0;
#X connect 10 0 18 0;
#X connect 13 0 14 0;
#X connect 14 0 11 0;
#X connect 15 0 3 0;
#X connect 18 0 25 0;
#X connect 18 1 5 0;
#X connect 18 2 7 0;
#X connect 21 0 2 0;
#X connect 23 0 19 0;
#X connect 24 0 16 0;
#X connect 25 0 26 0;
#X connect 25 1 23 0;
#X coords 0 -1 1 1 100 10 1 0 0;
