#N canvas 333 469 687 600 10;
#X obj 10 526 list split;
#X obj 38 548 list split 1;
#X obj 38 570 outlet;
#X msg 70 102 0;
#X obj 31 261 list split 1;
#X obj 114 261 t l;
#X text 141 327 <- find the first non-zero element to begin parsing
args;
#X obj 31 347 spigot 0;
#X msg 97 325 1;
#X text 146 261 <- serialize the arguments;
#X obj 58 303 route 0;
#X obj 118 370 t l;
#X obj 31 370 list prepend;
#X obj 31 283 t a a;
#X obj 31 127 list append \$1 \$2 \$3 \$4 \$5 \$6 \$7 \$8 \$9 \$10
\$11 \$12 \$13 \$14 \$15 \$16 \$17 \$18 \$19 \$20 \$21 \$22 \$23 \$24
\$25 \$26 \$27 \$28 \$29 \$30 \$31 \$32 \$33 \$34 \$35 \$36 \$37 \$38
\$39 \$40 \$41 \$42 \$43 \$44 \$45 \$46 \$47 \$48 \$49 \$50 \$51 \$52
\$53 \$54 \$55 \$56 \$57 \$58 \$59 \$60 \$61 \$62 \$63 \$64 \$65 \$66
\$67 \$68 \$69 \$70 \$71 \$72 \$73 \$74 \$75 \$76 \$77 \$78 \$79 \$80
\$81 \$82 \$83 \$84 \$85 \$86 \$87 \$88 \$89 \$90 \$91 \$92 \$93 \$94
\$95 \$96 \$97 \$98 \$99 \$100 \$101 \$102 \$103 \$104 \$105 \$106
\$107 \$108 \$109 \$110 \$111 \$112 \$113 \$114 \$115 \$116 \$117 \$118
\$119 \$120 \$121 \$122 \$123 \$124 \$125 \$126 \$127 \$128, f 66
;
#X obj 31 78 t b b b;
#X obj 31 56 loadbang;
#X obj 10 480 list;
#X obj 10 12 inlet;
#X obj 10 34 t b f;
#X obj 58 480 list length;
#X obj 31 457 t a a;
#X obj 67 504 mod;
#X connect 0 1 1 0;
#X connect 1 0 2 0;
#X connect 3 0 7 1;
#X connect 4 0 13 0;
#X connect 4 1 5 0;
#X connect 5 0 4 0;
#X connect 7 0 12 0;
#X connect 8 0 7 1;
#X connect 10 1 8 0;
#X connect 11 0 12 1;
#X connect 12 0 11 0;
#X connect 12 0 21 0;
#X connect 13 0 7 0;
#X connect 13 1 10 0;
#X connect 14 0 4 0;
#X connect 15 0 14 0;
#X connect 15 1 12 1;
#X connect 15 2 3 0;
#X connect 16 0 15 0;
#X connect 17 0 0 0;
#X connect 18 0 19 0;
#X connect 19 0 17 0;
#X connect 19 1 22 0;
#X connect 20 0 22 1;
#X connect 21 0 17 1;
#X connect 21 1 20 0;
#X connect 22 0 0 1;
