#N canvas 752 222 450 300 10;
#X obj 12 10 inlet;
#X obj 12 174 until;
#X obj 12 206 f;
#X obj 42 206 + 1;
#X obj 12 228 outlet;
#X msg 50 174 0;
#X obj 46 72 \$1;
#X obj 46 94 sel 0;
#X obj 12 124 f;
#X obj 12 32 t b b b f;
#X obj 12 146 - 1;
#X connect 0 0 9 0;
#X connect 1 0 2 0;
#X connect 2 0 3 0;
#X connect 2 0 4 0;
#X connect 3 0 2 1;
#X connect 5 0 2 0;
#X connect 6 0 7 0;
#X connect 7 1 8 1;
#X connect 8 0 10 0;
#X connect 9 0 8 0;
#X connect 9 1 5 0;
#X connect 9 2 6 0;
#X connect 9 3 8 1;
#X connect 10 0 1 0;
