#N canvas 707 392 450 300 10;
#X obj 11 8 inlet;
#X obj 30 144 list prepend 0;
#X obj 30 166 s \$1;
#X obj 11 192 outlet;
#X obj 50 52 list length;
#X obj 11 30 t a a a;
#X obj 50 74 list prepend resize;
#X obj 50 118 s \$1;
#X obj 50 96 list trim;
#X connect 0 0 5 0;
#X connect 1 0 2 0;
#X connect 4 0 6 0;
#X connect 5 0 3 0;
#X connect 5 1 1 0;
#X connect 5 2 4 0;
#X connect 6 0 8 0;
#X connect 8 0 7 0;
